<svg width="20" height="20" viewBox="0 0 20 20" fill="none" xmlns="http://www.w3.org/2000/svg">
<path opacity="0.5" d="M19.8382 9.1263L19.609 11.5616C19.2313 15.5742 19.0425 17.5805 17.8599 18.7902C16.6773 20 14.9048 20 11.3599 20H8.6401C5.09517 20 3.32271 20 2.14009 18.7902C0.957477 17.5805 0.768648 15.5742 0.390998 11.5616L0.161808 9.1263C-0.0182023 7.2137 -0.108202 6.25739 0.218988 5.86207C0.395978 5.64823 0.636658 5.5172 0.893988 5.4946C1.36968 5.45282 1.96708 6.1329 3.16187 7.49307C3.77977 8.1965 4.08872 8.5482 4.43337 8.6027C4.62434 8.6328 4.81892 8.6018 4.99526 8.5131C5.31351 8.3529 5.5257 7.91812 5.95007 7.04852L8.1869 2.46486C8.9888 0.82162 9.3898 0 10 0C10.6102 0 11.0112 0.82162 11.8131 2.46485L14.0499 7.04851C14.4743 7.91812 14.6865 8.3529 15.0047 8.5131C15.1811 8.6018 15.3757 8.6328 15.5666 8.6027C15.9113 8.5482 16.2202 8.1965 16.8381 7.49307C18.0329 6.1329 18.6303 5.45282 19.106 5.4946C19.3633 5.5172 19.604 5.64823 19.781 5.86207C20.1082 6.25739 20.0182 7.2137 19.8382 9.1263Z" fill="#F6B191"/>
</svg>
