<svg width="16" height="11" viewBox="0 0 16 11" fill="none" xmlns="http://www.w3.org/2000/svg">
<path d="M14.9553 6.73469H14.9563L13.9686 2.43484C13.663 1.49594 12.7911 0.8125 11.75 0.8125C10.9859 0.8125 10.3133 1.18375 9.88578 1.75H6.11469C5.68672 1.18375 5.01406 0.8125 4.25 0.8125C3.20891 0.8125 2.33703 1.49594 2.03141 2.43484L1.04375 6.73422H1.04469C0.996875 6.94047 0.96875 7.15422 0.96875 7.375C0.96875 8.92844 2.22781 10.1875 3.78125 10.1875C5.00516 10.1875 6.04391 9.40422 6.43016 8.3125H9.56984C9.95656 9.40422 10.9948 10.1875 12.2188 10.1875C13.7722 10.1875 15.0312 8.92844 15.0312 7.375C15.0312 7.15422 15.0031 6.94047 14.9553 6.73469ZM5.1875 5.5H4.71875V5.96875C4.71875 6.2275 4.50922 6.4375 4.25 6.4375C3.99078 6.4375 3.78125 6.2275 3.78125 5.96875V5.5H3.3125C3.05328 5.5 2.84375 5.29 2.84375 5.03125C2.84375 4.7725 3.05328 4.5625 3.3125 4.5625H3.78125V4.09375C3.78125 3.835 3.99078 3.625 4.25 3.625C4.50922 3.625 4.71875 3.835 4.71875 4.09375V4.5625H5.1875C5.44672 4.5625 5.65625 4.7725 5.65625 5.03125C5.65625 5.29 5.44672 5.5 5.1875 5.5ZM11.2812 5.96875C11.0225 5.96875 10.8125 5.75875 10.8125 5.5C10.8125 5.24125 11.0225 5.03125 11.2812 5.03125C11.54 5.03125 11.75 5.24125 11.75 5.5C11.75 5.75875 11.54 5.96875 11.2812 5.96875ZM11.2812 4.5625C11.0225 4.5625 10.8125 4.3525 10.8125 4.09375C10.8125 3.835 11.0225 3.625 11.2812 3.625C11.54 3.625 11.75 3.835 11.75 4.09375C11.75 4.3525 11.54 4.5625 11.2812 4.5625ZM12.6875 5.96875C12.4288 5.96875 12.2188 5.75875 12.2188 5.5C12.2188 5.24125 12.4288 5.03125 12.6875 5.03125C12.9462 5.03125 13.1562 5.24125 13.1562 5.5C13.1562 5.75875 12.9462 5.96875 12.6875 5.96875ZM12.6875 4.5625C12.4288 4.5625 12.2188 4.3525 12.2188 4.09375C12.2188 3.835 12.4288 3.625 12.6875 3.625C12.9462 3.625 13.1562 3.835 13.1562 4.09375C13.1562 4.3525 12.9462 4.5625 12.6875 4.5625Z" fill="#FDC872"/>
</svg>
