<svg width="15" height="15" viewBox="0 0 15 15" fill="none" xmlns="http://www.w3.org/2000/svg">
<path d="M7.5 9.6V11.7M14.5 7.64273V8.7075C14.5 11.4381 14.5 12.8034 13.6799 13.6517C12.8598 14.5 11.5398 14.5 8.9 14.5H6.1C3.46013 14.5 2.1402 14.5 1.3201 13.6517C0.5 12.8034 0.5 11.4381 0.5 8.7075V7.64273C0.5 6.04084 0.5 5.2399 0.86344 4.57592C1.22688 3.91195 1.89086 3.49986 3.21882 2.67569L4.61882 1.80681C6.02257 0.935603 6.72447 0.5 7.5 0.5C8.27553 0.5 8.97742 0.935603 10.3812 1.80681L11.7812 2.67568C13.1092 3.49986 13.7731 3.91195 14.1366 4.57592" stroke="#FDB94B" stroke-linecap="round"/>
</svg>
