<?xml version="1.0" encoding="UTF-8"?>
<!DOCTYPE svg PUBLIC "-//W3C//DTD SVG 1.1//EN" "http://www.w3.org/Graphics/SVG/1.1/DTD/svg11.dtd">
<svg xmlns="http://www.w3.org/2000/svg" version="1.1" width="425px" height="430px" style="shape-rendering:geometricPrecision; text-rendering:geometricPrecision; image-rendering:optimizeQuality; fill-rule:evenodd; clip-rule:evenodd" xmlns:xlink="http://www.w3.org/1999/xlink">
<g><path style="opacity:1" fill="#3c1d5d" d="M -0.5,-0.5 C 141.167,-0.5 282.833,-0.5 424.5,-0.5C 424.5,142.833 424.5,286.167 424.5,429.5C 282.833,429.5 141.167,429.5 -0.5,429.5C -0.5,286.167 -0.5,142.833 -0.5,-0.5 Z"/></g>
<g><path style="opacity:1" fill="#fefdfe" d="M 189.5,12.5 C 277.555,7.27057 344.388,41.9372 390,116.5C 416.347,165.47 422.013,216.803 407,270.5C 384.833,340.667 338.667,386.833 268.5,409C 184.327,429.758 113.494,407.925 56,343.5C 12.083,286.459 -0.250316,223.125 19,153.5C 48.3289,73.1043 105.162,26.1043 189.5,12.5 Z"/></g>
<g><path style="opacity:1" fill="#703a73" d="M 215.5,28.5 C 223.07,27.1643 226.903,30.1643 227,37.5C 225.167,39.3333 223.333,41.1667 221.5,43C 222.726,44.6349 224.059,46.1349 225.5,47.5C 226.833,46.5 228.167,45.5 229.5,44.5C 230.902,44.8655 231.902,45.6988 232.5,47C 231.5,48.6667 230.5,50.3333 229.5,52C 230.439,53.9439 231.773,55.6106 233.5,57C 230.066,57.8911 226.899,57.3911 224,55.5C 218.447,58.3883 213.114,58.055 208,54.5C 204.986,48.0275 206.819,43.5275 213.5,41C 209.078,35.9524 209.744,31.7858 215.5,28.5 Z"/></g>
<g><path style="opacity:1" fill="#703a73" d="M 183.5,30.5 C 188.223,29.5531 192.056,30.8864 195,34.5C 195.559,38.5531 194.059,41.7198 190.5,44C 192.241,45.6196 194.075,47.1196 196,48.5C 196.956,47.4214 197.789,46.2547 198.5,45C 200.296,44.564 201.629,45.2307 202.5,47C 199.436,51.2263 200.436,54.2263 205.5,56C 202.27,57.8372 199.27,57.6705 196.5,55.5C 190.195,60.6301 184.028,60.6301 178,55.5C 176.433,50.4667 177.933,46.6333 182.5,44C 177.045,39.0111 177.378,34.5111 183.5,30.5 Z"/></g>
<g><path style="opacity:1" fill="#6f3972" d="M 241.5,31.5 C 247.869,32.0928 253.869,33.9262 259.5,37C 264.239,42.76 264.739,48.9267 261,55.5C 259.269,57.6166 257.102,59.1166 254.5,60C 248.05,60.768 241.717,60.268 235.5,58.5C 237.658,49.5349 239.658,40.5349 241.5,31.5 Z"/></g>
<g><path style="opacity:1" fill="#f2edf2" d="M 217.5,33.5 C 222.394,34.5396 222.727,36.5396 218.5,39.5C 216.454,37.719 216.12,35.719 217.5,33.5 Z"/></g>
<g><path style="opacity:1" fill="#f5f1f5" d="M 185.5,35.5 C 186.833,35.5 188.167,35.5 189.5,35.5C 189.99,37.9484 189.157,39.615 187,40.5C 184.389,39.5001 183.889,37.8334 185.5,35.5 Z"/></g>
<g><path style="opacity:1" fill="#f7f4f7" d="M 246.5,38.5 C 257.215,40.2863 259.215,45.453 252.5,54C 249.518,54.498 246.518,54.6646 243.5,54.5C 244.5,49.1667 245.5,43.8333 246.5,38.5 Z"/></g>
<g><path style="opacity:1" fill="#77447a" d="M 272.5,39.5 C 278.016,39.4734 279.349,41.64 276.5,46C 271.791,46.082 270.458,43.9154 272.5,39.5 Z"/></g>
<g><path style="opacity:1" fill="#6f3972" d="M 287.5,42.5 C 289.645,42.7377 291.312,43.7377 292.5,45.5C 288.435,54.6307 284.101,63.6307 279.5,72.5C 277.668,71.7515 276.001,70.7515 274.5,69.5C 278.575,60.3517 282.908,51.3517 287.5,42.5 Z"/></g>
<g><path style="opacity:1" fill="#f2edf2" d="M 214.5,45.5 C 217.815,45.9717 220.149,47.805 221.5,51C 217.638,53.4972 214.638,52.8306 212.5,49C 212.978,47.6974 213.645,46.5307 214.5,45.5 Z"/></g>
<g><path style="opacity:1" fill="#f9f7f9" d="M 185.5,47.5 C 187.932,48.7502 190.266,50.2502 192.5,52C 188.887,55.6688 185.887,55.3355 183.5,51C 183.978,49.6974 184.645,48.5307 185.5,47.5 Z"/></g>
<g><path style="opacity:1" fill="#713b73" d="M 162.5,45.5 C 168.007,44.1053 171.507,46.1053 173,51.5C 174.723,54.7723 175.223,58.1056 174.5,61.5C 172.929,62.3094 171.262,62.6427 169.5,62.5C 168.84,58.6873 167.674,55.0207 166,51.5C 163.52,49.9103 161.687,50.4103 160.5,53C 161.909,56.803 163.243,60.6363 164.5,64.5C 162.598,66.1511 160.598,66.4845 158.5,65.5C 156.365,59.9561 154.698,54.2894 153.5,48.5C 155.752,47.6669 157.919,47.6669 160,48.5C 161.045,47.6266 161.878,46.6266 162.5,45.5 Z"/></g>
<g><path style="opacity:1" fill="#723c74" d="M 269.5,48.5 C 271.117,49.038 272.784,49.3713 274.5,49.5C 272.952,55.8129 270.618,61.8129 267.5,67.5C 265.503,67.0142 264.169,65.8475 263.5,64C 265.41,58.7654 267.41,53.5987 269.5,48.5 Z"/></g>
<g><path style="opacity:1" fill="#703a73" d="M 139.5,54.5 C 150.436,54.2539 154.269,59.2539 151,69.5C 144.471,76.4927 138.471,76.1593 133,68.5C 132.333,65.8333 132.333,63.1667 133,60.5C 135.063,58.2659 137.229,56.2659 139.5,54.5 Z"/></g>
<g><path style="opacity:1" fill="#f8f5f8" d="M 140.5,59.5 C 146.264,59.8596 147.931,62.6929 145.5,68C 138.416,68.475 136.749,65.6417 140.5,59.5 Z"/></g>
<g><path style="opacity:1" fill="#723c74" d="M 292.5,62.5 C 301.998,61.1727 306.498,65.1727 306,74.5C 305.632,75.91 304.799,76.91 303.5,77.5C 300.086,75.0426 296.586,72.7093 293,70.5C 292.367,75.2024 294.534,77.3691 299.5,77C 300.88,78.3236 301.214,79.6569 300.5,81C 291.638,82.1311 287.138,78.2977 287,69.5C 287.967,66.3794 289.8,64.046 292.5,62.5 Z"/></g>
<g><path style="opacity:1" fill="#723c74" d="M 118.5,66.5 C 123.223,65.5531 127.056,66.8864 130,70.5C 130.617,71.4491 130.451,72.2825 129.5,73C 126.147,74.6768 123.147,76.8434 120.5,79.5C 122.074,80.6309 123.741,80.7975 125.5,80C 126.745,77.3432 128.745,75.5099 131.5,74.5C 132.568,81.7793 129.235,85.446 121.5,85.5C 114.639,84.4593 111.806,80.4593 113,73.5C 114.666,71.0043 116.5,68.671 118.5,66.5 Z"/></g>
<g><path style="opacity:1" fill="#eee8ee" d="M 295.5,66.5 C 297.308,66.4914 298.975,66.9914 300.5,68C 301.731,69.1827 301.731,70.3493 300.5,71.5C 298.054,70.4756 296.388,68.8089 295.5,66.5 Z"/></g>
<g><path style="opacity:1" fill="#ede6ed" d="M 119.5,71.5 C 121.199,71.3398 122.866,71.5065 124.5,72C 122.333,73.5 120.167,75 118,76.5C 117.387,74.5048 117.887,72.8381 119.5,71.5 Z"/></g>
<g><path style="opacity:1" fill="#713c74" d="M 313.5,72.5 C 315.544,73.0312 317.211,74.1978 318.5,76C 318.167,76.3333 317.833,76.6667 317.5,77C 321.978,77.6462 324.644,80.1462 325.5,84.5C 332.025,85.1685 334.192,88.5018 332,94.5C 328.63,97.535 325.63,100.868 323,104.5C 321.5,103 320,101.5 318.5,100C 322.062,96.9416 325.062,93.4416 327.5,89.5C 326.307,87.6163 324.641,87.1163 322.5,88C 320.355,91.3124 317.688,94.1457 314.5,96.5C 313.019,95.5197 311.685,94.353 310.5,93C 313.568,89.6027 316.235,85.936 318.5,82C 318.237,80.0543 317.237,79.3877 315.5,80C 312.333,83.1667 309.167,86.3333 306,89.5C 304.647,88.3147 303.48,86.9814 302.5,85.5C 306.412,81.3211 310.079,76.9878 313.5,72.5 Z"/></g>
<g><path style="opacity:1" fill="#713c74" d="M 103.5,78.5 C 110.146,82.9804 115.646,88.647 120,95.5C 120.506,101.355 118.006,105.521 112.5,108C 109.12,108.938 106.12,108.271 103.5,106C 105.03,103.072 107.197,102.239 110,103.5C 115.312,100.912 115.812,97.5789 111.5,93.5C 109.726,100.441 105.393,102.941 98.5,101C 93.3315,97.1902 92.1648,92.3569 95,86.5C 96.9347,84.8978 99.1013,83.7311 101.5,83C 101.167,82.6667 100.833,82.3333 100.5,82C 101.71,80.9609 102.71,79.7942 103.5,78.5 Z"/></g>
<g><path style="opacity:1" fill="#f9f7f9" d="M 100.5,87.5 C 107.158,86.3445 109.158,88.8445 106.5,95C 100.258,95.9235 98.2583,93.4235 100.5,87.5 Z"/></g>
<g><path style="opacity:1" fill="#723d75" d="M 337.5,95.5 C 340.786,96.2419 342.12,98.0753 341.5,101C 345.704,102.228 347.87,105.061 348,109.5C 354.565,111.972 355.732,115.805 351.5,121C 347.912,123.377 344.412,125.877 341,128.5C 340.215,126.714 339.049,125.214 337.5,124C 340.167,122 342.833,120 345.5,118C 349.788,114.245 349.121,112.578 343.5,113C 340.5,115.167 337.5,117.333 334.5,119.5C 333.289,118.126 332.289,116.626 331.5,115C 334.098,112.032 337.098,109.532 340.5,107.5C 341.73,103.917 340.396,102.751 336.5,104C 333.667,106.167 330.833,108.333 328,110.5C 326.471,109.271 325.304,107.771 324.5,106C 329.269,102.96 333.603,99.4605 337.5,95.5 Z"/></g>
<g><path style="opacity:1" fill="#703a73" d="M 84.5,98.5 C 90.8392,99.8413 96.1725,103.008 100.5,108C 99.2744,109.635 97.941,111.135 96.5,112.5C 93.0105,109.589 89.3438,106.922 85.5,104.5C 83.0544,105.427 82.2211,107.094 83,109.5C 86.3381,112.008 89.5048,114.675 92.5,117.5C 91.9744,119.23 90.9744,120.564 89.5,121.5C 84.235,118.565 79.5683,114.899 75.5,110.5C 76.5,109.167 77.5,107.833 78.5,106.5C 79.086,106.709 79.586,107.043 80,107.5C 80.3333,105.833 80.6667,104.167 81,102.5C 82.3756,101.295 83.5423,99.9616 84.5,98.5 Z"/></g>
<g><path style="opacity:1" fill="#713c74" d="M 70.5,116.5 C 75.6916,119.013 80.8583,121.68 86,124.5C 86.5205,126.289 86.1871,127.956 85,129.5C 84.3333,130.833 83.6667,130.833 83,129.5C 83.3804,134.599 81.2137,137.932 76.5,139.5C 71.7112,137.272 67.0445,134.772 62.5,132C 63.3134,130.197 64.4801,128.697 66,127.5C 69.0551,128.611 71.8884,130.111 74.5,132C 76.1341,132.494 77.8008,132.66 79.5,132.5C 79.6567,131.127 79.49,129.793 79,128.5C 75.758,125.795 72.258,123.461 68.5,121.5C 69.4565,119.925 70.1231,118.258 70.5,116.5 Z"/></g>
<g><path style="opacity:1" fill="#572e58" d="M 216.5,122.5 C 211.5,123.167 206.5,123.833 201.5,124.5C 206.371,122.254 211.371,121.587 216.5,122.5 Z"/></g>
<g><path style="opacity:1" fill="#4c2f58" d="M 220.5,124.5 C 223.331,125.079 225.664,126.412 227.5,128.5C 224.669,127.921 222.336,126.588 220.5,124.5 Z"/></g>
<g><path style="opacity:1" fill="#713b73" d="M 356.5,124.5 C 362.394,127.285 364.894,131.952 364,138.5C 359.948,141.782 355.448,144.448 350.5,146.5C 348.559,144.684 347.892,142.684 348.5,140.5C 343.669,137.186 342.669,133.019 345.5,128C 351.729,127.361 355.729,130.195 357.5,136.5C 358.72,136.113 359.387,135.28 359.5,134C 358.777,131.447 357.444,129.28 355.5,127.5C 356.127,126.583 356.461,125.583 356.5,124.5 Z"/></g>
<g><path style="opacity:1" fill="#442551" d="M 195.5,125.5 C 193.786,126.738 191.786,127.405 189.5,127.5C 187.236,128.219 184.903,128.552 182.5,128.5C 186.575,126.882 190.908,125.882 195.5,125.5 Z"/></g>
<g><path style="opacity:1" fill="#ca7481" d="M 216.5,122.5 C 218.153,122.66 219.486,123.326 220.5,124.5C 222.336,126.588 224.669,127.921 227.5,128.5C 230.485,129.326 233.151,130.659 235.5,132.5C 239.347,135.593 243.68,137.926 248.5,139.5C 249.492,139.328 250.158,139.662 250.5,140.5C 251.23,141.712 252.23,142.712 253.5,143.5C 252.91,144.799 251.91,145.632 250.5,146C 235.226,150.152 219.892,153.985 204.5,157.5C 205.263,156.732 206.263,156.232 207.5,156C 206.027,155.29 205.36,154.124 205.5,152.5C 205.5,151.833 205.5,151.167 205.5,150.5C 207.861,150.326 210.194,149.993 212.5,149.5C 212.33,148.178 212.663,147.011 213.5,146C 211.722,145.296 209.888,144.796 208,144.5C 205.522,145.332 203.022,145.499 200.5,145C 201.167,144.667 201.833,144.333 202.5,144C 201.584,143.722 200.918,143.222 200.5,142.5C 204.182,142.665 207.848,142.499 211.5,142C 215.395,139.699 215.062,137.699 210.5,136C 205.448,135.274 200.448,135.441 195.5,136.5C 191.022,136.862 186.688,137.862 182.5,139.5C 179.689,138.92 177.023,138.254 174.5,137.5C 177.059,137.802 179.393,137.468 181.5,136.5C 182.774,135.811 182.774,134.977 181.5,134C 178.854,133.503 176.187,133.336 173.5,133.5C 176.228,132.795 179.061,132.128 182,131.5C 183.073,132.28 184.24,132.113 185.5,131C 185.167,130.667 184.833,130.333 184.5,130C 186.653,129.901 188.319,129.067 189.5,127.5C 191.786,127.405 193.786,126.738 195.5,125.5C 197.379,124.659 199.379,124.325 201.5,124.5C 206.5,123.833 211.5,123.167 216.5,122.5 Z"/></g>
<g><path style="opacity:1" fill="#8943c5" d="M 216.5,129.5 C 213.5,130.833 210.5,130.833 207.5,129.5C 208.152,128.275 209.319,127.608 211,127.5C 213.221,127.393 215.054,128.06 216.5,129.5 Z"/></g>
<g><path style="opacity:1" fill="#370743" d="M 216.5,129.5 C 215.054,128.06 213.221,127.393 211,127.5C 209.319,127.608 208.152,128.275 207.5,129.5C 205.014,128.05 205.347,126.884 208.5,126C 211.531,125.505 214.531,125.671 217.5,126.5C 217.737,127.791 217.404,128.791 216.5,129.5 Z"/></g>
<g><path style="opacity:1" fill="#3a1947" d="M 182.5,128.5 C 177.233,130.259 171.733,131.592 166,132.5C 164.93,132.472 164.097,132.139 163.5,131.5C 169.813,130.371 176.146,129.371 182.5,128.5 Z"/></g>
<g><path style="opacity:1" fill="#3d1a49" d="M 235.5,132.5 C 240.32,134.074 244.653,136.407 248.5,139.5C 243.68,137.926 239.347,135.593 235.5,132.5 Z"/></g>
<g><path style="opacity:1" fill="#310647" d="M 173.5,133.5 C 176.187,133.336 178.854,133.503 181.5,134C 182.774,134.977 182.774,135.811 181.5,136.5C 180.207,135.842 178.707,135.508 177,135.5C 175.014,135.569 173.514,136.235 172.5,137.5C 169.852,135.743 170.186,134.41 173.5,133.5 Z"/></g>
<g><path style="opacity:1" fill="#f2eef2" d="M 349.5,132.5 C 352.776,133.122 354.109,135.122 353.5,138.5C 349.262,138.28 347.928,136.28 349.5,132.5 Z"/></g>
<g><path style="opacity:1" fill="#9f54ec" d="M 181.5,136.5 C 179.393,137.468 177.059,137.802 174.5,137.5C 173.833,137.5 173.167,137.5 172.5,137.5C 173.514,136.235 175.014,135.569 177,135.5C 178.707,135.508 180.207,135.842 181.5,136.5 Z"/></g>
<g><path style="opacity:1" fill="#703a72" d="M 55.5,137.5 C 67.5452,137.047 73.3785,142.714 73,154.5C 71.6271,158.819 69.7938,162.819 67.5,166.5C 58.9735,163.549 50.6402,160.216 42.5,156.5C 43.7787,147.854 48.112,141.52 55.5,137.5 Z"/></g>
<g><path style="opacity:1" fill="#dd8b95" d="M 189.5,127.5 C 188.319,129.067 186.653,129.901 184.5,130C 184.833,130.333 185.167,130.667 185.5,131C 184.24,132.113 183.073,132.28 182,131.5C 179.061,132.128 176.228,132.795 173.5,133.5C 170.186,134.41 169.852,135.743 172.5,137.5C 173.167,137.5 173.833,137.5 174.5,137.5C 177.023,138.254 179.689,138.92 182.5,139.5C 186.688,137.862 191.022,136.862 195.5,136.5C 193.83,139.163 194.497,140.83 197.5,141.5C 198.209,142.404 199.209,142.737 200.5,142.5C 200.918,143.222 201.584,143.722 202.5,144C 201.833,144.333 201.167,144.667 200.5,145C 203.022,145.499 205.522,145.332 208,144.5C 209.888,144.796 211.722,145.296 213.5,146C 212.663,147.011 212.33,148.178 212.5,149.5C 210.194,149.993 207.861,150.326 205.5,150.5C 200.938,147.706 196.605,147.873 192.5,151C 192.57,151.765 192.903,152.265 193.5,152.5C 196.524,154.776 199.857,155.109 203.5,153.5C 204.167,153.167 204.833,152.833 205.5,152.5C 205.36,154.124 206.027,155.29 207.5,156C 206.263,156.232 205.263,156.732 204.5,157.5C 203.432,158.434 202.099,158.768 200.5,158.5C 198.031,157.683 195.365,157.183 192.5,157C 191.034,156.365 189.7,155.531 188.5,154.5C 187.893,154.624 187.56,154.957 187.5,155.5C 186.609,154.89 185.609,154.557 184.5,154.5C 179.405,150.583 174.405,146.417 169.5,142C 165.31,140.798 161.977,138.465 159.5,135C 160.571,134.148 161.571,133.315 162.5,132.5C 162.5,131.833 162.833,131.5 163.5,131.5C 164.097,132.139 164.93,132.472 166,132.5C 171.733,131.592 177.233,130.259 182.5,128.5C 184.903,128.552 187.236,128.219 189.5,127.5 Z"/></g>
<g><path style="opacity:1" fill="#30153f" d="M 158.5,133.5 C 157.035,136.432 156.369,139.932 156.5,144C 157,150.5 157.5,157 158,163.5C 158.995,164.066 159.828,164.733 160.5,165.5C 158.447,165.598 156.78,164.931 155.5,163.5C 155.763,154.01 155.93,144.343 156,134.5C 156.671,133.748 157.504,133.414 158.5,133.5 Z"/></g>
<g><path style="opacity:1" fill="#340a4d" d="M 200.5,142.5 C 199.209,142.737 198.209,142.404 197.5,141.5C 194.497,140.83 193.83,139.163 195.5,136.5C 200.448,135.441 205.448,135.274 210.5,136C 215.062,137.699 215.395,139.699 211.5,142C 207.848,142.499 204.182,142.665 200.5,142.5 Z"/></g>
<g><path style="opacity:1" fill="#9a4de5" d="M 197.5,141.5 C 196.316,140.312 196.316,139.145 197.5,138C 202.754,135.917 207.754,136.417 212.5,139.5C 211.975,140.192 211.308,140.692 210.5,141C 206.179,141.499 201.846,141.666 197.5,141.5 Z"/></g>
<g><path style="opacity:1" fill="#33054e" d="M 239.5,143.5 C 236.167,142.167 232.833,142.167 229.5,143.5C 228.596,142.791 228.263,141.791 228.5,140.5C 232.543,138.846 236.377,139.179 240,141.5C 240.692,142.437 240.525,143.103 239.5,143.5 Z"/></g>
<g><path style="opacity:1" fill="#9750df" d="M 239.5,143.5 C 236.167,144.833 232.833,144.833 229.5,143.5C 232.833,142.167 236.167,142.167 239.5,143.5 Z"/></g>
<g><path style="opacity:1" fill="#f8f6f8" d="M 55.5,144.5 C 65.6187,144.452 68.7854,149.118 65,158.5C 60.3088,156.404 55.4754,154.737 50.5,153.5C 50.9002,149.691 52.5669,146.691 55.5,144.5 Z"/></g>
<g><path style="opacity:1" fill="#ad4b72" d="M 162.5,132.5 C 161.571,133.315 160.571,134.148 159.5,135C 161.977,138.465 165.31,140.798 169.5,142C 174.405,146.417 179.405,150.583 184.5,154.5C 187.804,156.973 190.638,159.973 193,163.5C 193.829,168.533 193.662,173.533 192.5,178.5C 190.677,177.253 188.677,176.586 186.5,176.5C 182.889,174.069 178.889,172.403 174.5,171.5C 169.522,170.068 164.856,168.068 160.5,165.5C 159.828,164.733 158.995,164.066 158,163.5C 157.5,157 157,150.5 156.5,144C 156.369,139.932 157.035,136.432 158.5,133.5C 159.568,132.566 160.901,132.232 162.5,132.5 Z"/></g>
<g><path style="opacity:1" fill="#754077" d="M 364.5,145.5 C 370.78,147.049 373.28,151.049 372,157.5C 370.644,158.38 369.144,158.714 367.5,158.5C 366.988,149.189 366.155,149.189 365,158.5C 363.914,162.457 361.414,163.957 357.5,163C 352.259,158.722 351.426,153.888 355,148.5C 356.225,148.862 357.391,149.362 358.5,150C 357.077,152.62 357.243,155.12 359,157.5C 360.216,155.038 360.882,152.371 361,149.5C 361.69,147.65 362.856,146.316 364.5,145.5 Z"/></g>
<g><path style="opacity:1" fill="#340747" d="M 205.5,150.5 C 205.5,151.167 205.5,151.833 205.5,152.5C 204.833,152.833 204.167,153.167 203.5,153.5C 202.384,151.492 200.551,150.492 198,150.5C 196.124,150.525 194.624,151.191 193.5,152.5C 192.903,152.265 192.57,151.765 192.5,151C 196.605,147.873 200.938,147.706 205.5,150.5 Z"/></g>
<g><path style="opacity:1" fill="#380743" d="M 250.5,140.5 C 252.84,141.086 255.007,142.086 257,143.5C 258.042,147.759 258.875,152.093 259.5,156.5C 264.538,154.765 269.538,152.932 274.5,151C 276.5,150.333 278.5,150.333 280.5,151C 296.363,158.097 311.696,165.93 326.5,174.5C 325.833,174.5 325.167,174.5 324.5,174.5C 310.287,167.393 295.953,160.227 281.5,153C 271.956,153.57 262.956,156.07 254.5,160.5C 249.903,162.032 245.236,163.365 240.5,164.5C 231.094,166.342 221.76,168.008 212.5,169.5C 211.402,165.411 209.068,164.577 205.5,167C 202.133,170.133 201.799,173.466 204.5,177C 207.481,177.838 209.814,177.005 211.5,174.5C 213.167,174.5 214.833,174.5 216.5,174.5C 217.382,190.175 217.382,205.842 216.5,221.5C 215.264,222.246 213.93,222.579 212.5,222.5C 212.667,211.495 212.5,200.495 212,189.5C 211.691,188.234 211.191,187.067 210.5,186C 209.563,185.308 208.897,185.475 208.5,186.5C 206.5,185.5 204.5,184.5 202.5,183.5C 196.864,181.678 191.531,179.345 186.5,176.5C 188.677,176.586 190.677,177.253 192.5,178.5C 193.662,173.533 193.829,168.533 193,163.5C 190.638,159.973 187.804,156.973 184.5,154.5C 185.609,154.557 186.609,154.89 187.5,155.5C 191.19,159.462 195.523,160.462 200.5,158.5C 202.099,158.768 203.432,158.434 204.5,157.5C 219.892,153.985 235.226,150.152 250.5,146C 251.91,145.632 252.91,144.799 253.5,143.5C 252.23,142.712 251.23,141.712 250.5,140.5 Z"/></g>
<g><path style="opacity:1" fill="#9348d2" d="M 203.5,153.5 C 199.857,155.109 196.524,154.776 193.5,152.5C 194.624,151.191 196.124,150.525 198,150.5C 200.551,150.492 202.384,151.492 203.5,153.5 Z"/></g>
<g><path style="opacity:1" fill="#edc0d3" d="M 187.5,155.5 C 187.56,154.957 187.893,154.624 188.5,154.5C 189.7,155.531 191.034,156.365 192.5,157C 195.365,157.183 198.031,157.683 200.5,158.5C 195.523,160.462 191.19,159.462 187.5,155.5 Z"/></g>
<g><path style="opacity:1" fill="#a65ec7" d="M 324.5,174.5 C 323.352,175.164 322.019,175.331 320.5,175C 321.051,176.398 321.384,177.732 321.5,179C 322.996,179.507 324.163,179.007 325,177.5C 325.617,178.449 325.451,179.282 324.5,180C 318.28,182.941 312.28,186.108 306.5,189.5C 300.675,192.884 294.675,195.884 288.5,198.5C 286.254,199.455 283.921,200.122 281.5,200.5C 283.273,199.108 285.273,197.941 287.5,197C 286.552,196.517 285.552,196.351 284.5,196.5C 284.918,195.778 285.584,195.278 286.5,195C 286.167,194.667 285.833,194.333 285.5,194C 287.167,192.833 288.833,191.667 290.5,190.5C 289.571,188.362 287.904,187.196 285.5,187C 285.957,186.586 286.291,186.086 286.5,185.5C 283.064,181.954 279.231,181.621 275,184.5C 274.5,184.167 274,183.833 273.5,183.5C 275.184,182.85 276.517,181.85 277.5,180.5C 280.136,179.881 282.636,178.881 285,177.5C 285.825,175.299 285.325,173.466 283.5,172C 277.876,169.103 272.21,168.936 266.5,171.5C 265.922,169.557 264.922,169.223 263.5,170.5C 261.649,168.816 259.982,166.983 258.5,165C 256.369,164.457 254.369,163.624 252.5,162.5C 253.243,161.818 253.909,161.151 254.5,160.5C 262.956,156.07 271.956,153.57 281.5,153C 295.953,160.227 310.287,167.393 324.5,174.5 Z"/></g>
<g><path style="opacity:1" fill="#a578c2" d="M 212.5,169.5 C 212.634,171.292 212.301,172.958 211.5,174.5C 209.814,177.005 207.481,177.838 204.5,177C 201.799,173.466 202.133,170.133 205.5,167C 209.068,164.577 211.402,165.411 212.5,169.5 Z"/></g>
<g><path style="opacity:1" fill="#321340" d="M 152.5,161.5 C 136.451,167.412 120.451,173.745 104.5,180.5C 116.956,174.442 129.623,168.609 142.5,163C 145.726,161.801 149.059,161.301 152.5,161.5 Z"/></g>
<g><path style="opacity:1" fill="#3e1a58" d="M 277.5,180.5 C 273.941,180.592 270.608,179.759 267.5,178C 265.316,176.102 264.983,173.936 266.5,171.5C 272.21,168.936 277.876,169.103 283.5,172C 285.325,173.466 285.825,175.299 285,177.5C 282.636,178.881 280.136,179.881 277.5,180.5 Z"/></g>
<g><path style="opacity:1" fill="#d5917e" d="M 152.5,161.5 C 153.71,161.932 154.71,162.599 155.5,163.5C 156.78,164.931 158.447,165.598 160.5,165.5C 164.856,168.068 169.522,170.068 174.5,171.5C 178.111,173.931 182.111,175.597 186.5,176.5C 191.531,179.345 196.864,181.678 202.5,183.5C 201.235,185.592 199.235,187.759 196.5,190C 197.549,190.492 198.549,190.326 199.5,189.5C 200.696,189.846 200.696,190.346 199.5,191C 189.838,196.165 180.171,201.331 170.5,206.5C 170.44,205.957 170.107,205.624 169.5,205.5C 164.14,208.18 158.807,210.847 153.5,213.5C 152.531,212.691 151.698,211.691 151,210.5C 149.887,211.711 148.72,211.711 147.5,210.5C 146.396,211.631 146.729,212.465 148.5,213C 146.029,213.706 143.695,213.373 141.5,212C 142.34,210.334 141.84,210.167 140,211.5C 136.758,210.218 134.091,208.218 132,205.5C 129.758,206.175 127.591,205.675 125.5,204C 127.67,202.414 130.004,201.08 132.5,200C 129.41,200.194 126.41,201.027 123.5,202.5C 120.226,201.53 117.226,200.03 114.5,198C 115.167,197 115.833,196 116.5,195C 122.736,192.883 128.736,190.216 134.5,187C 135.696,186.346 135.696,185.846 134.5,185.5C 126.487,189.853 118.154,193.02 109.5,195C 107.998,194.417 106.665,193.584 105.5,192.5C 107.336,191.081 109.336,189.914 111.5,189C 107.718,188.891 104.718,190.391 102.5,193.5C 100.745,192.928 99.0779,192.094 97.5,191C 99.3008,190.683 99.6341,190.016 98.5,189C 102.932,188.377 103.265,187.377 99.5,186C 102.402,185.081 102.735,184.248 100.5,183.5C 101.833,182.5 103.167,181.5 104.5,180.5C 120.451,173.745 136.451,167.412 152.5,161.5 Z"/></g>
<g><path style="opacity:1" fill="#36103f" d="M 174.5,171.5 C 178.889,172.403 182.889,174.069 186.5,176.5C 182.111,175.597 178.111,173.931 174.5,171.5 Z"/></g>
<g><path style="opacity:1" fill="#b972db" d="M 254.5,160.5 C 253.909,161.151 253.243,161.818 252.5,162.5C 254.369,163.624 256.369,164.457 258.5,165C 259.982,166.983 261.649,168.816 263.5,170.5C 264.922,169.223 265.922,169.557 266.5,171.5C 264.983,173.936 265.316,176.102 267.5,178C 270.608,179.759 273.941,180.592 277.5,180.5C 276.517,181.85 275.184,182.85 273.5,183.5C 274,183.833 274.5,184.167 275,184.5C 279.231,181.621 283.064,181.954 286.5,185.5C 286.291,186.086 285.957,186.586 285.5,187C 287.904,187.196 289.571,188.362 290.5,190.5C 288.833,191.667 287.167,192.833 285.5,194C 285.833,194.333 286.167,194.667 286.5,195C 285.584,195.278 284.918,195.778 284.5,196.5C 279.499,200.323 273.833,201.823 267.5,201C 259.607,196.223 251.607,191.723 243.5,187.5C 241.565,186.85 239.565,186.517 237.5,186.5C 236.972,185.279 236.305,184.113 235.5,183C 232.661,181.343 229.661,180.01 226.5,179C 225.667,177.5 224.5,176.333 223,175.5C 222.421,174.072 222.588,172.738 223.5,171.5C 229.344,169.405 235.011,167.072 240.5,164.5C 245.236,163.365 249.903,162.032 254.5,160.5 Z"/></g>
<g><path style="opacity:1" fill="#e5c1ee" d="M 278.5,178.5 C 279.483,177.15 280.816,176.15 282.5,175.5C 281.91,174.201 280.91,173.368 279.5,173C 276.833,172.333 274.167,172.333 271.5,173C 269.574,173.422 268.574,174.589 268.5,176.5C 265.825,174.624 266.158,173.124 269.5,172C 273.167,171.333 276.833,171.333 280.5,172C 285.978,175.584 285.312,177.75 278.5,178.5 Z"/></g>
<g><path style="opacity:1" fill="#f6e5fa" d="M 278.5,178.5 C 275.813,178.664 273.146,178.497 270.5,178C 269.584,177.722 268.918,177.222 268.5,176.5C 268.574,174.589 269.574,173.422 271.5,173C 274.167,172.333 276.833,172.333 279.5,173C 280.91,173.368 281.91,174.201 282.5,175.5C 280.816,176.15 279.483,177.15 278.5,178.5 Z"/></g>
<g><path style="opacity:1" fill="#763198" d="M 324.5,174.5 C 325.167,174.5 325.833,174.5 326.5,174.5C 327.714,175.626 328.714,176.959 329.5,178.5C 329.167,179.167 328.833,179.833 328.5,180.5C 321.362,184.072 314.029,187.072 306.5,189.5C 312.28,186.108 318.28,182.941 324.5,180C 325.451,179.282 325.617,178.449 325,177.5C 324.163,179.007 322.996,179.507 321.5,179C 321.384,177.732 321.051,176.398 320.5,175C 322.019,175.331 323.352,175.164 324.5,174.5 Z"/></g>
<g><path style="opacity:1" fill="#551e71" d="M 223.5,171.5 C 222.588,172.738 222.421,174.072 223,175.5C 224.5,176.333 225.667,177.5 226.5,179C 229.661,180.01 232.661,181.343 235.5,183C 236.305,184.113 236.972,185.279 237.5,186.5C 233.727,184.779 230.061,182.779 226.5,180.5C 226.167,181.167 225.833,181.833 225.5,182.5C 223.629,181.233 221.796,181.233 220,182.5C 218.831,177.869 219.998,177.202 223.5,180.5C 223.833,180.167 224.167,179.833 224.5,179.5C 222.958,177.047 220.958,176.38 218.5,177.5C 217.347,176.687 217.347,175.687 218.5,174.5C 219.94,173.048 221.606,172.048 223.5,171.5 Z"/></g>
<g><path style="opacity:1" fill="#2b0546" d="M 326.5,174.5 C 329.792,175.057 332.292,176.724 334,179.5C 334.812,183.689 334.645,187.689 333.5,191.5C 332.772,188.921 332.272,186.254 332,183.5C 331.275,182.941 330.442,182.608 329.5,182.5C 315.943,188.239 302.277,193.572 288.5,198.5C 294.675,195.884 300.675,192.884 306.5,189.5C 314.029,187.072 321.362,184.072 328.5,180.5C 328.833,179.833 329.167,179.167 329.5,178.5C 328.714,176.959 327.714,175.626 326.5,174.5 Z"/></g>
<g><path style="opacity:1" fill="#42105e" d="M 333.5,191.5 C 333.5,193.167 333.5,194.833 333.5,196.5C 332.833,196.833 332.167,197.167 331.5,197.5C 331.662,195.473 331.495,193.473 331,191.5C 328.961,209.791 327.461,228.124 326.5,246.5C 326.372,248.09 325.705,249.423 324.5,250.5C 308.656,258.922 292.656,267.089 276.5,275C 274.553,275.991 272.553,276.325 270.5,276C 269.483,274.951 269.316,273.784 270,272.5C 272.836,275.016 275.669,274.849 278.5,272C 276.3,272.584 274.133,272.418 272,271.5C 271.667,268.833 271.333,266.167 271,263.5C 270.667,265.5 270.333,267.5 270,269.5C 269.902,250.834 270.235,232.167 271,213.5C 271.639,210.888 272.806,208.554 274.5,206.5C 273.998,205.479 273.332,205.312 272.5,206C 271.421,207.859 270.088,209.359 268.5,210.5C 267.432,207.925 265.765,205.758 263.5,204C 267.279,204.709 270.946,204.542 274.5,203.5C 276.649,202.264 278.982,201.264 281.5,200.5C 283.921,200.122 286.254,199.455 288.5,198.5C 302.277,193.572 315.943,188.239 329.5,182.5C 330.442,182.608 331.275,182.941 332,183.5C 332.272,186.254 332.772,188.921 333.5,191.5 Z"/></g>
<g><path style="opacity:1" fill="#e6aaf7" d="M 243.5,187.5 C 251.607,191.723 259.607,196.223 267.5,201C 273.833,201.823 279.499,200.323 284.5,196.5C 285.552,196.351 286.552,196.517 287.5,197C 285.273,197.941 283.273,199.108 281.5,200.5C 278.982,201.264 276.649,202.264 274.5,203.5C 270.208,203.965 266.208,203.132 262.5,201C 255.986,196.637 249.653,192.137 243.5,187.5 Z"/></g>
<g><path style="opacity:1" fill="#3c115c" d="M 242.5,218.5 C 238.773,216.863 236.773,218.196 236.5,222.5C 237.123,226.414 238.79,229.747 241.5,232.5C 240.503,232.47 239.836,232.97 239.5,234C 243.9,244.799 248.567,255.466 253.5,266C 253.272,266.399 252.938,266.565 252.5,266.5C 241.945,259.458 231.779,251.792 222,243.5C 221.138,241.913 220.471,240.246 220,238.5C 219.789,227.454 219.289,216.454 218.5,205.5C 219.321,202.359 219.821,199.025 220,195.5C 225.781,204.727 230.781,214.394 235,224.5C 235.21,221.766 236.044,219.266 237.5,217C 239.674,216.123 241.341,216.623 242.5,218.5 Z"/></g>
<g><path style="opacity:1" fill="#6f2896" d="M 331.5,197.5 C 330.54,214.052 328.873,230.386 326.5,246.5C 327.461,228.124 328.961,209.791 331,191.5C 331.495,193.473 331.662,195.473 331.5,197.5 Z"/></g>
<g><path style="opacity:1" fill="#76268d" d="M 237.5,186.5 C 239.565,186.517 241.565,186.85 243.5,187.5C 249.653,192.137 255.986,196.637 262.5,201C 266.208,203.132 270.208,203.965 274.5,203.5C 270.946,204.542 267.279,204.709 263.5,204C 265.765,205.758 267.432,207.925 268.5,210.5C 268.666,231.516 268.166,252.516 267,273.5C 266.581,274.672 265.915,275.672 265,276.5C 260.357,273.683 256.19,270.349 252.5,266.5C 252.938,266.565 253.272,266.399 253.5,266C 248.567,255.466 243.9,244.799 239.5,234C 239.836,232.97 240.503,232.47 241.5,232.5C 243.994,234.077 245.827,233.41 247,230.5C 247.703,227.518 247.203,224.851 245.5,222.5C 244.512,221.205 243.512,219.872 242.5,218.5C 241.341,216.623 239.674,216.123 237.5,217C 236.044,219.266 235.21,221.766 235,224.5C 230.781,214.394 225.781,204.727 220,195.5C 219.821,199.025 219.321,202.359 218.5,205.5C 218.5,196.167 218.5,186.833 218.5,177.5C 220.958,176.38 222.958,177.047 224.5,179.5C 224.167,179.833 223.833,180.167 223.5,180.5C 219.998,177.202 218.831,177.869 220,182.5C 221.796,181.233 223.629,181.233 225.5,182.5C 225.833,181.833 226.167,181.167 226.5,180.5C 230.061,182.779 233.727,184.779 237.5,186.5 Z"/></g>
<g><path style="opacity:1" fill="#ebcbf3" d="M 229.5,191.5 C 231.118,194.822 230.785,197.822 228.5,200.5C 227.145,199.812 226.145,198.812 225.5,197.5C 226.298,195.034 227.631,193.034 229.5,191.5 Z"/></g>
<g><path style="opacity:1" fill="#c49ad6" d="M 229.5,191.5 C 227.631,193.034 226.298,195.034 225.5,197.5C 223.571,195.094 223.238,192.428 224.5,189.5C 226.854,188.177 228.521,188.843 229.5,191.5 Z"/></g>
<g><path style="opacity:1" fill="#8a80ad" d="M 326.5,252.5 C 328.647,253.932 328.98,255.765 327.5,258C 319.771,262.195 312.105,266.362 304.5,270.5C 295.721,274.484 286.721,277.984 277.5,281C 270.976,282.011 264.643,281.345 258.5,279C 251.379,275.939 244.379,272.606 237.5,269C 225.385,270.479 213.718,273.812 202.5,279C 188.284,285.608 173.951,291.941 159.5,298C 155.973,298.808 152.64,298.641 149.5,297.5C 154.215,297.329 158.548,295.829 162.5,293C 179.254,282.875 195.754,272.375 212,261.5C 212.167,249.153 212.667,236.82 213.5,224.5C 214.736,223.754 216.07,223.421 217.5,223.5C 217.862,230.593 218.695,237.593 220,244.5C 235.41,256.455 250.91,268.288 266.5,280C 267.833,280.667 269.167,280.667 270.5,280C 289.066,270.55 307.732,261.384 326.5,252.5 Z"/></g>
<g><path style="opacity:1" fill="#aeabca" d="M 329.5,246.5 C 329.414,247.496 329.748,248.329 330.5,249C 341.457,253.423 342.124,258.757 332.5,265C 325.757,269.038 318.757,272.538 311.5,275.5C 308.888,274.221 306.555,272.555 304.5,270.5C 312.105,266.362 319.771,262.195 327.5,258C 328.98,255.765 328.647,253.932 326.5,252.5C 327.799,250.588 328.799,248.588 329.5,246.5 Z"/></g>
<g><path style="opacity:1" fill="#bfbfd7" d="M 94.5,260.5 C 95.1429,262.076 96.1429,263.41 97.5,264.5C 97.8588,266.371 98.8588,267.871 100.5,269C 115.167,278.333 129.833,287.667 144.5,297C 145.448,297.483 146.448,297.649 147.5,297.5C 148.167,297.5 148.833,297.5 149.5,297.5C 152.64,298.641 155.973,298.808 159.5,298C 173.951,291.941 188.284,285.608 202.5,279C 213.718,273.812 225.385,270.479 237.5,269C 244.379,272.606 251.379,275.939 258.5,279C 264.643,281.345 270.976,282.011 277.5,281C 286.721,277.984 295.721,274.484 304.5,270.5C 306.555,272.555 308.888,274.221 311.5,275.5C 301.206,282.308 289.872,286.308 277.5,287.5C 261.004,284.89 244.504,282.223 228,279.5C 217.007,279.965 206.507,282.465 196.5,287C 182.5,293.333 168.5,299.667 154.5,306C 144.884,308.805 135.884,307.472 127.5,302C 114.994,293.914 102.661,285.581 90.5,277C 86.2381,274.351 85.0714,270.851 87,266.5C 89.8437,264.841 92.3437,262.841 94.5,260.5 Z"/></g>
<g><path style="opacity:1" fill="#2d0745" d="M 240.5,164.5 C 235.011,167.072 229.344,169.405 223.5,171.5C 221.606,172.048 219.94,173.048 218.5,174.5C 217.347,175.687 217.347,176.687 218.5,177.5C 218.5,186.833 218.5,196.167 218.5,205.5C 219.289,216.454 219.789,227.454 220,238.5C 220.471,240.246 221.138,241.913 222,243.5C 231.779,251.792 241.945,259.458 252.5,266.5C 256.19,270.349 260.357,273.683 265,276.5C 265.915,275.672 266.581,274.672 267,273.5C 268.166,252.516 268.666,231.516 268.5,210.5C 270.088,209.359 271.421,207.859 272.5,206C 273.332,205.312 273.998,205.479 274.5,206.5C 272.806,208.554 271.639,210.888 271,213.5C 270.235,232.167 269.902,250.834 270,269.5C 270.333,267.5 270.667,265.5 271,263.5C 271.333,266.167 271.667,268.833 272,271.5C 274.133,272.418 276.3,272.584 278.5,272C 275.669,274.849 272.836,275.016 270,272.5C 269.316,273.784 269.483,274.951 270.5,276C 272.553,276.325 274.553,275.991 276.5,275C 292.656,267.089 308.656,258.922 324.5,250.5C 325.705,249.423 326.372,248.09 326.5,246.5C 328.873,230.386 330.54,214.052 331.5,197.5C 332.167,197.167 332.833,196.833 333.5,196.5C 332.034,213.156 330.701,229.822 329.5,246.5C 328.799,248.588 327.799,250.588 326.5,252.5C 307.732,261.384 289.066,270.55 270.5,280C 269.167,280.667 267.833,280.667 266.5,280C 250.91,268.288 235.41,256.455 220,244.5C 218.695,237.593 217.862,230.593 217.5,223.5C 216.07,223.421 214.736,223.754 213.5,224.5C 212.667,236.82 212.167,249.153 212,261.5C 195.754,272.375 179.254,282.875 162.5,293C 158.548,295.829 154.215,297.329 149.5,297.5C 148.833,297.5 148.167,297.5 147.5,297.5C 130.87,286.513 114.203,275.513 97.5,264.5C 96.1429,263.41 95.1429,262.076 94.5,260.5C 91.7803,236.86 89.6136,213.193 88,189.5C 88.4652,188.069 89.2986,186.903 90.5,186C 95.0838,183.863 99.7505,182.029 104.5,180.5C 103.167,181.5 101.833,182.5 100.5,183.5C 96.9191,184.239 93.9191,185.905 91.5,188.5C 93.6784,190.745 96.0117,192.745 98.5,194.5C 95.5939,193.213 92.5939,192.213 89.5,191.5C 89.5,193.5 89.5,195.5 89.5,197.5C 89.6865,202.845 90.0199,208.178 90.5,213.5C 90.3284,214.492 90.6618,215.158 91.5,215.5C 91.4497,221.389 92.1164,227.056 93.5,232.5C 93.4551,242.401 94.7884,252.067 97.5,261.5C 108.55,269.353 119.883,276.686 131.5,283.5C 136.023,287.687 141.189,291.021 147,293.5C 147.772,293.355 148.439,293.022 149,292.5C 149.121,280.166 148.788,267.833 148,255.5C 147.682,243.698 146.516,232.032 144.5,220.5C 145.966,221.347 146.8,222.68 147,224.5C 147.819,220.829 149.985,218.495 153.5,217.5C 171.329,207.083 189.662,197.416 208.5,188.5C 209.773,187.743 209.773,187.077 208.5,186.5C 208.897,185.475 209.563,185.308 210.5,186C 211.191,187.067 211.691,188.234 212,189.5C 212.5,200.495 212.667,211.495 212.5,222.5C 213.93,222.579 215.264,222.246 216.5,221.5C 217.382,205.842 217.382,190.175 216.5,174.5C 214.833,174.5 213.167,174.5 211.5,174.5C 212.301,172.958 212.634,171.292 212.5,169.5C 221.76,168.008 231.094,166.342 240.5,164.5 Z"/></g>
<g><path style="opacity:1" fill="#65247c" d="M 211.5,198.5 C 211.667,217.836 211.5,237.17 211,256.5C 210.55,258.519 209.717,260.352 208.5,262C 204.606,264.446 200.606,266.612 196.5,268.5C 199.922,265.61 203.589,262.943 207.5,260.5C 208.806,259.088 209.64,257.421 210,255.5C 210.168,236.329 210.668,217.329 211.5,198.5 Z"/></g>
<g><path style="opacity:1" fill="#e3c1ed" d="M 253.5,251.5 C 258.126,252.303 260.459,255.136 260.5,260C 259.034,264.454 256.868,264.621 254,260.5C 252.281,257.546 252.115,254.546 253.5,251.5 Z"/></g>
<g><path style="opacity:1" fill="#ac82c9" d="M 318.5,236.5 C 319.833,236.5 321.167,236.5 322.5,236.5C 323.742,241.834 321.908,245.5 317,247.5C 315.268,247.266 314.434,246.266 314.5,244.5C 315.317,241.533 316.65,238.866 318.5,236.5 Z"/></g>
<g><path style="opacity:1" fill="#350c4f" d="M 245.5,222.5 C 247.203,224.851 247.703,227.518 247,230.5C 245.827,233.41 243.994,234.077 241.5,232.5C 243.911,232.863 245.411,231.863 246,229.5C 246.018,227.203 245.851,224.869 245.5,222.5 Z"/></g>
<g><path style="opacity:1" fill="#a97bc6" d="M 301.5,222.5 C 303.144,222.286 304.644,222.62 306,223.5C 307.655,228.937 306.155,233.103 301.5,236C 295.92,237.261 294.087,235.094 296,229.5C 297.382,226.695 299.216,224.361 301.5,222.5 Z"/></g>
<g><path style="opacity:1" fill="#8a4350" d="M 98.5,194.5 C 113.506,203.672 128.839,212.338 144.5,220.5C 146.516,232.032 147.682,243.698 148,255.5C 148.788,267.833 149.121,280.166 149,292.5C 148.439,293.022 147.772,293.355 147,293.5C 141.189,291.021 136.023,287.687 131.5,283.5C 132.376,283.631 133.043,283.298 133.5,282.5C 132.833,281.5 132.167,280.5 131.5,279.5C 132.2,279.213 132.867,278.88 133.5,278.5C 134.391,279.11 135.391,279.443 136.5,279.5C 137.5,279.5 138.5,279.5 139.5,279.5C 140.598,280.397 140.598,281.23 139.5,282C 137.744,282.202 136.078,282.702 134.5,283.5C 136.567,284.134 138.4,285.134 140,286.5C 140.317,284.699 140.984,284.366 142,285.5C 143.784,282.997 145.451,282.997 147,285.5C 147.279,280.786 146.446,276.286 144.5,272C 145.458,270.853 145.125,269.853 143.5,269C 144.796,265.091 145.463,260.925 145.5,256.5C 145.193,245.314 144.026,233.981 142,222.5C 126.717,211.443 110.217,202.943 92.5,197C 91.9011,198.622 91.2344,200.122 90.5,201.5C 90.7678,199.901 90.4345,198.568 89.5,197.5C 89.5,195.5 89.5,193.5 89.5,191.5C 92.5939,192.213 95.5939,193.213 98.5,194.5 Z"/></g>
<g><path style="opacity:1" fill="#e0b0a3" d="M 93.5,232.5 C 92.1164,227.056 91.4497,221.389 91.5,215.5C 93.0841,220.347 93.7508,226.013 93.5,232.5 Z"/></g>
<g><path style="opacity:1" fill="#dfbde9" d="M 242.5,218.5 C 243.512,219.872 244.512,221.205 245.5,222.5C 245.851,224.869 246.018,227.203 246,229.5C 245.411,231.863 243.911,232.863 241.5,232.5C 238.79,229.747 237.123,226.414 236.5,222.5C 236.773,218.196 238.773,216.863 242.5,218.5 Z"/></g>
<g><path style="opacity:1" fill="#571e40" d="M 211.5,198.5 C 210.668,217.329 210.168,236.329 210,255.5C 209.64,257.421 208.806,259.088 207.5,260.5C 203.589,262.943 199.922,265.61 196.5,268.5C 183.387,277.565 169.72,285.898 155.5,293.5C 153.971,293.471 152.804,292.804 152,291.5C 150.408,271.691 149.241,251.858 148.5,232C 147.961,226.287 149.627,221.454 153.5,217.5C 171.35,209.242 189.017,200.408 206.5,191C 208.112,190.28 209.612,190.446 211,191.5C 211.497,193.81 211.663,196.143 211.5,198.5 Z"/></g>
<g><path style="opacity:1" fill="#551f93" d="M 201.5,248.5 C 204.488,248.155 205.821,249.488 205.5,252.5C 205.494,255.857 203.994,258.19 201,259.5C 198.942,258.942 197.775,257.609 197.5,255.5C 198.071,252.687 199.404,250.354 201.5,248.5 Z"/></g>
<g><path style="opacity:1" fill="#551e94" d="M 187.5,244.5 C 185.314,249.228 181.814,250.561 177,248.5C 175.668,243.334 176.835,239 180.5,235.5C 182.991,233.832 185.158,234.166 187,236.5C 187.497,239.146 187.664,241.813 187.5,244.5 Z"/></g>
<g><path style="opacity:1" fill="#2f054a" d="M 187.5,244.5 C 187.664,241.813 187.497,239.146 187,236.5C 185.158,234.166 182.991,233.832 180.5,235.5C 183.33,231.839 186.163,231.839 189,235.5C 189.927,238.863 189.427,241.863 187.5,244.5 Z"/></g>
<g><path style="opacity:1" fill="#ae82c9" d="M 282.5,209.5 C 286.976,209.822 288.476,212.156 287,216.5C 285.517,220.665 282.684,222.165 278.5,221C 276.584,216.006 277.917,212.172 282.5,209.5 Z"/></g>
<g><path style="opacity:1" fill="#31093e" d="M 98.5,194.5 C 113.761,201.798 128.761,209.631 143.5,218C 144.252,218.671 144.586,219.504 144.5,220.5C 128.839,212.338 113.506,203.672 98.5,194.5 Z"/></g>
<g><path style="opacity:1" fill="#9a5155" d="M 139.5,279.5 C 140.833,277.167 140.833,274.833 139.5,272.5C 138.92,270.251 137.587,268.585 135.5,267.5C 134.415,265.418 132.915,265.084 131,266.5C 129.888,270.981 130.721,274.981 133.5,278.5C 132.867,278.88 132.2,279.213 131.5,279.5C 132.167,280.5 132.833,281.5 133.5,282.5C 133.043,283.298 132.376,283.631 131.5,283.5C 119.883,276.686 108.55,269.353 97.5,261.5C 94.7884,252.067 93.4551,242.401 93.5,232.5C 93.7508,226.013 93.0841,220.347 91.5,215.5C 90.6618,215.158 90.3284,214.492 90.5,213.5C 91.7908,209.601 91.7908,205.601 90.5,201.5C 91.2344,200.122 91.9011,198.622 92.5,197C 110.217,202.943 126.717,211.443 142,222.5C 144.026,233.981 145.193,245.314 145.5,256.5C 145.463,260.925 144.796,265.091 143.5,269C 145.125,269.853 145.458,270.853 144.5,272C 146.446,276.286 147.279,280.786 147,285.5C 145.451,282.997 143.784,282.997 142,285.5C 140.984,284.366 140.317,284.699 140,286.5C 138.4,285.134 136.567,284.134 134.5,283.5C 136.078,282.702 137.744,282.202 139.5,282C 140.598,281.23 140.598,280.397 139.5,279.5 Z"/></g>
<g><path style="opacity:1" fill="#2e0444" d="M 135.5,267.5 C 134.5,267.5 133.5,267.5 132.5,267.5C 132.024,271.378 133.024,274.712 135.5,277.5C 135.833,278.167 136.167,278.833 136.5,279.5C 135.391,279.443 134.391,279.11 133.5,278.5C 130.721,274.981 129.888,270.981 131,266.5C 132.915,265.084 134.415,265.418 135.5,267.5 Z"/></g>
<g><path style="opacity:1" fill="#49197e" d="M 135.5,267.5 C 137.587,268.585 138.92,270.251 139.5,272.5C 138.883,272.389 138.383,272.056 138,271.5C 137.415,273.661 136.582,275.661 135.5,277.5C 133.024,274.712 132.024,271.378 132.5,267.5C 133.5,267.5 134.5,267.5 135.5,267.5 Z"/></g>
<g><path style="opacity:1" fill="#6c28a5" d="M 105.5,250.5 C 107.141,252.287 108.141,254.454 108.5,257C 108.613,258.699 107.947,259.866 106.5,260.5C 104.391,258.878 103.391,256.712 103.5,254C 103.608,252.319 104.275,251.152 105.5,250.5 Z"/></g>
<g><path style="opacity:1" fill="#320647" d="M 105.5,250.5 C 104.275,251.152 103.608,252.319 103.5,254C 103.391,256.712 104.391,258.878 106.5,260.5C 105.178,260.67 104.011,260.337 103,259.5C 101.443,256.828 100.276,253.995 99.5,251C 101.247,246.614 103.247,246.447 105.5,250.5 Z"/></g>
<g><path style="opacity:1" fill="#300648" d="M 113.5,233.5 C 118.84,233.665 122.34,236.332 124,241.5C 124.789,245.091 124.622,248.591 123.5,252C 119.975,252.658 117.141,251.491 115,248.5C 111.392,243.681 110.892,238.681 113.5,233.5 Z"/></g>
<g><path style="opacity:1" fill="#933ed2" d="M 120.5,238.5 C 123.217,241.637 124.051,245.304 123,249.5C 119.058,251.084 116.558,249.75 115.5,245.5C 117.179,245.108 118.846,244.608 120.5,244C 118.189,241.794 118.189,239.961 120.5,238.5 Z"/></g>
<g><path style="opacity:1" fill="#501d8a" d="M 120.5,238.5 C 118.189,239.961 118.189,241.794 120.5,244C 118.846,244.608 117.179,245.108 115.5,245.5C 113.573,242.863 113.073,239.863 114,236.5C 116.86,234.923 119.027,235.59 120.5,238.5 Z"/></g>
<g><path style="opacity:1" fill="#8c3cca" d="M 138.5,229.5 C 140.102,232.534 139.769,235.201 137.5,237.5C 135.596,237.262 134.262,236.262 133.5,234.5C 135.333,232.937 137,231.27 138.5,229.5 Z"/></g>
<g><path style="opacity:1" fill="#2f0445" d="M 134.5,224.5 C 132.11,224.685 131.11,226.018 131.5,228.5C 131.599,230.799 132.266,232.799 133.5,234.5C 134.262,236.262 135.596,237.262 137.5,237.5C 136.749,238.573 135.749,238.74 134.5,238C 129.82,234.497 128.154,229.997 129.5,224.5C 131.299,223.212 132.965,223.212 134.5,224.5 Z"/></g>
<g><path style="opacity:1" fill="#4f1c88" d="M 134.5,224.5 C 136.587,225.585 137.92,227.251 138.5,229.5C 137,231.27 135.333,232.937 133.5,234.5C 132.266,232.799 131.599,230.799 131.5,228.5C 131.11,226.018 132.11,224.685 134.5,224.5 Z"/></g>
<g><path style="opacity:1" fill="#9544d4" d="M 103.5,210.5 C 104.473,212.948 104.806,215.615 104.5,218.5C 102.62,218.771 101.287,218.104 100.5,216.5C 101.522,214.456 102.522,212.456 103.5,210.5 Z"/></g>
<g><path style="opacity:1" fill="#2e0446" d="M 101.5,207.5 C 100.5,207.5 99.5,207.5 98.5,207.5C 98.3359,210.187 98.5026,212.854 99,215.5C 99.3826,216.056 99.8826,216.389 100.5,216.5C 101.287,218.104 102.62,218.771 104.5,218.5C 103.054,219.613 101.387,219.78 99.5,219C 95.8719,215.169 94.7052,210.669 96,205.5C 98.5283,204.066 100.362,204.733 101.5,207.5 Z"/></g>
<g><path style="opacity:1" fill="#4c1987" d="M 101.5,207.5 C 102.906,207.973 103.573,208.973 103.5,210.5C 102.522,212.456 101.522,214.456 100.5,216.5C 99.8826,216.389 99.3826,216.056 99,215.5C 98.5026,212.854 98.3359,210.187 98.5,207.5C 99.5,207.5 100.5,207.5 101.5,207.5 Z"/></g>
<g><path style="opacity:1" fill="#9d565b" d="M 100.5,183.5 C 102.735,184.248 102.402,185.081 99.5,186C 103.265,187.377 102.932,188.377 98.5,189C 99.6341,190.016 99.3008,190.683 97.5,191C 99.0779,192.094 100.745,192.928 102.5,193.5C 111.508,199.005 120.841,204.005 130.5,208.5C 135.598,212.134 141.098,215.134 147,217.5C 154.997,214.252 162.83,210.586 170.5,206.5C 180.171,201.331 189.838,196.165 199.5,191C 200.696,190.346 200.696,189.846 199.5,189.5C 198.549,190.326 197.549,190.492 196.5,190C 199.235,187.759 201.235,185.592 202.5,183.5C 204.5,184.5 206.5,185.5 208.5,186.5C 209.773,187.077 209.773,187.743 208.5,188.5C 189.662,197.416 171.329,207.083 153.5,217.5C 149.985,218.495 147.819,220.829 147,224.5C 146.8,222.68 145.966,221.347 144.5,220.5C 144.586,219.504 144.252,218.671 143.5,218C 128.761,209.631 113.761,201.798 98.5,194.5C 96.0117,192.745 93.6784,190.745 91.5,188.5C 93.9191,185.905 96.9191,184.239 100.5,183.5 Z"/></g>
<g><path style="opacity:1" fill="#f1cab3" d="M 170.5,206.5 C 162.83,210.586 154.997,214.252 147,217.5C 141.098,215.134 135.598,212.134 130.5,208.5C 136.036,211.1 141.703,213.433 147.5,215.5C 149.516,214.822 151.516,214.156 153.5,213.5C 158.807,210.847 164.14,208.18 169.5,205.5C 170.107,205.624 170.44,205.957 170.5,206.5 Z"/></g>
<g><path style="opacity:1" fill="#ddb3a2" d="M 89.5,197.5 C 90.4345,198.568 90.7678,199.901 90.5,201.5C 91.7908,205.601 91.7908,209.601 90.5,213.5C 90.0199,208.178 89.6865,202.845 89.5,197.5 Z"/></g>
<g><path style="opacity:1" fill="#bb776f" d="M 153.5,213.5 C 151.516,214.156 149.516,214.822 147.5,215.5C 141.703,213.433 136.036,211.1 130.5,208.5C 120.841,204.005 111.508,199.005 102.5,193.5C 104.718,190.391 107.718,188.891 111.5,189C 109.336,189.914 107.336,191.081 105.5,192.5C 106.665,193.584 107.998,194.417 109.5,195C 118.154,193.02 126.487,189.853 134.5,185.5C 135.696,185.846 135.696,186.346 134.5,187C 128.736,190.216 122.736,192.883 116.5,195C 115.833,196 115.167,197 114.5,198C 117.226,200.03 120.226,201.53 123.5,202.5C 126.41,201.027 129.41,200.194 132.5,200C 130.004,201.08 127.67,202.414 125.5,204C 127.591,205.675 129.758,206.175 132,205.5C 134.091,208.218 136.758,210.218 140,211.5C 141.84,210.167 142.34,210.334 141.5,212C 143.695,213.373 146.029,213.706 148.5,213C 146.729,212.465 146.396,211.631 147.5,210.5C 148.72,211.711 149.887,211.711 151,210.5C 151.698,211.691 152.531,212.691 153.5,213.5 Z"/></g>
<g><path style="opacity:1" fill="#310744" d="M 145.5,180.5 C 149.247,180.392 152.914,180.892 156.5,182C 161.003,184.289 161.336,186.956 157.5,190C 150.563,193.745 144.063,193.245 138,188.5C 137.333,187.5 137.333,186.5 138,185.5C 140.133,183.19 142.633,181.524 145.5,180.5 Z"/></g>
<g><path style="opacity:1" fill="#9144e1" d="M 145.5,182.5 C 150.603,181.664 154.937,182.998 158.5,186.5C 156.997,188.422 154.997,189.588 152.5,190C 149.5,190.667 146.5,190.667 143.5,190C 141.427,189.882 140.093,188.882 139.5,187C 140.973,184.767 142.973,183.267 145.5,182.5 Z"/></g>
<g><path style="opacity:1" fill="#e9bef8" d="M 145.5,184.5 C 146.978,184.238 148.311,184.571 149.5,185.5C 148.833,185.833 148.167,186.167 147.5,186.5C 146.287,186.253 145.62,185.586 145.5,184.5 Z"/></g>
<g><path style="opacity:1" fill="#7e34b6" d="M 139.5,272.5 C 140.833,274.833 140.833,277.167 139.5,279.5C 138.5,279.5 137.5,279.5 136.5,279.5C 136.167,278.833 135.833,278.167 135.5,277.5C 136.582,275.661 137.415,273.661 138,271.5C 138.383,272.056 138.883,272.389 139.5,272.5 Z"/></g>
<g><path style="opacity:1" fill="#511b8c" d="M 161.5,269.5 C 165.24,268.741 166.907,270.241 166.5,274C 165.834,279.361 163,281.528 158,280.5C 156.882,276.077 158.049,272.41 161.5,269.5 Z"/></g>
<g><path style="opacity:1" fill="#9086b2" d="M 97.5,264.5 C 114.203,275.513 130.87,286.513 147.5,297.5C 146.448,297.649 145.448,297.483 144.5,297C 129.833,287.667 115.167,278.333 100.5,269C 98.8588,267.871 97.8588,266.371 97.5,264.5 Z"/></g>
</svg>
