<svg width="15" height="15" viewBox="0 0 15 15" fill="none" xmlns="http://www.w3.org/2000/svg">
<path d="M10.6968 6.28027L8.01145 7.62978L5.32606 6.28027L2 12.9188L4.07197 12.7143L5.13522 14.5L8.01145 8.77482L10.8877 14.5L11.9509 12.7143L14.0229 12.9188L10.6968 6.28027Z" fill="#FDB94B"/>
<path d="M8.01114 10.7786C10.4353 10.7786 12.4004 8.81346 12.4004 6.38931C12.4004 3.96516 10.4353 2 8.01114 2C5.58699 2 3.62183 3.96516 3.62183 6.38931C3.62183 8.81346 5.58699 10.7786 8.01114 10.7786Z" fill="#FDB94B"/>
<path d="M8.17494 4.31757L8.74746 5.4626C8.77472 5.51713 8.82925 5.55803 8.88377 5.57166L10.1515 5.7625C10.3014 5.78976 10.3696 5.96697 10.2605 6.07602L9.34724 6.97569C9.30634 7.01659 9.27908 7.08474 9.29271 7.13927L9.51082 8.40699C9.53808 8.55693 9.3745 8.67962 9.23819 8.59783L8.10678 7.99805C8.05226 7.97078 7.9841 7.97078 7.92957 7.99805L6.78453 8.59783C6.64822 8.66598 6.48464 8.55693 6.51191 8.40699L6.73001 7.13927C6.74364 7.08474 6.71638 7.01659 6.67548 6.97569L5.76218 6.07602C5.65313 5.96697 5.70765 5.77613 5.87123 5.7625L7.13895 5.57166C7.19348 5.55803 7.248 5.53076 7.27526 5.4626L7.84778 4.31757C7.91594 4.18125 8.10678 4.18125 8.17494 4.31757Z" fill="#3C1D5D"/>
</svg>
