<svg xmlns="http://www.w3.org/2000/svg" xmlns:android="http://schemas.android.com/apk/res/android" width="24dp" height="12dp" viewportWidth="24" viewportHeight="12">
	<path d="M24,7.185C23.959,7.115 22.977,5.37 21,3.593C20.011,2.706 18.77,1.811 17.266,1.133C15.764,0.455 13.997,-0.001 12,0C10.003,-0.001 8.236,0.455 6.734,1.133C4.478,2.151 2.814,3.652 1.703,4.894C0.592,6.139 0.03,7.132 0,7.185L1.375,7.958L2.016,8.321L2.017,8.319L2.017,8.318C2.059,8.242 2.97,6.692 4.665,5.209C5.512,4.466 6.552,3.74 7.772,3.204C8.993,2.667 10.393,2.315 12,2.314C13.645,2.315 15.073,2.684 16.315,3.242C18.175,4.079 19.611,5.36 20.572,6.436C21.052,6.973 21.413,7.457 21.649,7.8C21.767,7.971 21.854,8.108 21.91,8.198C21.938,8.243 21.958,8.277 21.97,8.297L21.982,8.318L21.984,8.321L22.439,8.062L21.983,8.319L24,7.185Z" fill="#ffffff"/>
	<path d="M12,3.818C9.764,3.818 7.951,5.631 7.951,7.868C7.951,10.104 9.764,11.917 12,11.917C14.236,11.917 16.05,10.104 16.05,7.868C16.049,5.631 14.236,3.818 12,3.818Z" fill="#ffffff"/>
</svg>
