<svg xmlns="http://www.w3.org/2000/svg" xmlns:android="http://schemas.android.com/apk/res/android" width="24dp" height="13dp" viewportWidth="24" viewportHeight="13">
	<path d="M0,5.732C0.041,5.802 1.023,7.547 3,9.324C3.989,10.211 5.23,11.106 6.734,11.784C8.236,12.462 10.003,12.918 12,12.917C13.997,12.918 15.764,12.462 17.266,11.784C19.522,10.766 21.186,9.265 22.297,8.023C23.408,6.778 23.97,5.785 24,5.732L22.625,4.959L21.984,4.596L21.983,4.598L21.983,4.599C21.941,4.675 21.03,6.225 19.335,7.708C18.488,8.451 17.448,9.177 16.228,9.713C15.007,10.25 13.607,10.602 12,10.603C10.355,10.602 8.927,10.233 7.685,9.675C5.825,8.838 4.389,7.557 3.428,6.481C2.948,5.944 2.588,5.46 2.351,5.117C2.233,4.946 2.146,4.809 2.09,4.719C2.062,4.674 2.042,4.64 2.03,4.62L2.018,4.599L2.016,4.596L1.561,4.855L2.017,4.598L0,5.732Z" fill="#ffffff"/>
	<path d="M12,8.099C14.236,8.099 16.049,6.286 16.049,4.049C16.049,1.813 14.236,0 12,0C9.763,0 7.95,1.813 7.95,4.049C7.95,6.286 9.764,8.099 12,8.099Z" fill="#ffffff"/>
</svg>
