<svg width="15" height="15" viewBox="0 0 15 15" fill="none" xmlns="http://www.w3.org/2000/svg">
<path d="M12.1667 12.6333C12.1667 10.0559 10.0774 7.96667 7.5 7.96667M7.5 7.96667C4.9226 7.96667 2.83333 10.0559 2.83333 12.6333M7.5 7.96667C9.0464 7.96667 10.3 6.71306 10.3 5.16667C10.3 3.62027 9.0464 2.36667 7.5 2.36667C5.9536 2.36667 4.7 3.62027 4.7 5.16667C4.7 6.71306 5.9536 7.96667 7.5 7.96667ZM14.5 7.5C14.5 11.366 11.366 14.5 7.5 14.5C3.63401 14.5 0.5 11.366 0.5 7.5C0.5 3.63401 3.63401 0.5 7.5 0.5C11.366 0.5 14.5 3.63401 14.5 7.5Z" stroke="white" stroke-opacity="0.7" stroke-miterlimit="10" stroke-linejoin="round"/>
</svg>
