<svg width="15" height="15" viewBox="0 0 15 15" fill="none" xmlns="http://www.w3.org/2000/svg">
<path d="M5.50721 2.88586C6.39385 1.29529 6.83716 0.5 7.49999 0.5C8.16282 0.5 8.60613 1.29528 9.49275 2.88586L9.72214 3.29736C9.97414 3.74935 10.1001 3.97535 10.2966 4.12446C10.493 4.27358 10.7376 4.32892 11.2269 4.43963L11.6723 4.54042C13.3941 4.92999 14.255 5.12477 14.4598 5.7834C14.6646 6.44201 14.0777 7.12836 12.9039 8.50092L12.6003 8.85603C12.2667 9.24607 12.0999 9.44109 12.0249 9.68238C11.9499 9.92367 11.9751 10.1839 12.0255 10.7043L12.0714 11.1781C12.2489 13.0094 12.3376 13.9251 11.8014 14.3321C11.2651 14.7392 10.4591 14.368 8.847 13.6258L8.42994 13.4337C7.97186 13.2228 7.74282 13.1173 7.49999 13.1173C7.25716 13.1173 7.02812 13.2228 6.57004 13.4337L6.15298 13.6258C4.54087 14.368 3.73482 14.7392 3.1986 14.3321C2.66238 13.9251 2.75111 13.0094 2.92858 11.1781L2.97448 10.7043C3.02492 10.1839 3.05013 9.92367 2.9751 9.68238C2.90007 9.44109 2.7333 9.24607 2.39974 8.85603L2.09607 8.50092C0.922276 7.12836 0.335376 6.44201 0.540195 5.7834C0.745015 5.12477 1.6059 4.92999 3.32768 4.54042L3.77312 4.43963C4.26239 4.32892 4.50703 4.27358 4.70345 4.12446C4.89988 3.97535 5.02587 3.74935 5.27782 3.29736L5.50721 2.88586Z" stroke="#FDB94B"/>
</svg>
