<svg width="14" height="13" viewBox="0 0 14 13" fill="none" xmlns="http://www.w3.org/2000/svg">
<path d="M5.22073 2.38024C6.01238 0.960081 6.40819 0.25 7 0.25C7.59181 0.25 7.98763 0.960075 8.77925 2.38023L8.98406 2.74764C9.20906 3.15121 9.3215 3.35299 9.49694 3.48613C9.67231 3.61927 9.89069 3.66869 10.3276 3.76753L10.7253 3.85752C12.2626 4.20535 13.0313 4.37926 13.2141 4.96733C13.397 5.55538 12.873 6.16819 11.8249 7.39369L11.5538 7.71075C11.256 8.059 11.1071 8.23312 11.0401 8.44856C10.9731 8.664 10.9956 8.89631 11.0406 9.361L11.0816 9.784C11.2401 11.4191 11.3193 12.2367 10.8406 12.6001C10.3618 12.9636 9.64206 12.6322 8.20269 11.9695L7.83031 11.798C7.42131 11.6097 7.21681 11.5155 7 11.5155C6.78319 11.5155 6.57869 11.6097 6.16969 11.798L5.79731 11.9695C4.35793 12.6322 3.63824 12.9636 3.15947 12.6001C2.6807 12.2367 2.75993 11.4191 2.91838 9.784L2.95936 9.361C3.00439 8.89631 3.02691 8.664 2.95991 8.44856C2.89293 8.23312 2.74402 8.059 2.4462 7.71075L2.17506 7.39369C1.12703 6.16819 0.603014 5.55538 0.785889 4.96733C0.968764 4.37926 1.73741 4.20535 3.27471 3.85752L3.67243 3.76753C4.10928 3.66869 4.32771 3.61927 4.50309 3.48613C4.67847 3.35299 4.79096 3.15121 5.01592 2.74764L5.22073 2.38024Z" fill="#FDC872"/>
</svg>
