<?xml version="1.0" encoding="UTF-8" standalone="no"?>
<!DOCTYPE svg PUBLIC "-//W3C//DTD SVG 1.1//EN" "http://www.w3.org/Graphics/SVG/1.1/DTD/svg11.dtd">
<svg width="24px" height="24px" viewBox="0 0 64 64" version="1.1"
     xmlns="http://www.w3.org/2000/svg"
     xmlns:xlink="http://www.w3.org/1999/xlink"
     xml:space="preserve"
     xmlns:serif="http://www.serif.com/"
     style="fill-rule:evenodd;clip-rule:evenodd;stroke-linejoin:round;stroke-miterlimit:2;">
  <rect id="Icons" x="-896" y="-256" width="1280" height="800" style="fill:none;"/>
    <g id="Icons1" serif:id="Icons">
    <g id="eye">
      <path d="M32.513,13.926c10.574,0.15 19.249,9.657 23.594,17.837c0,0 -1.529,3.129 -2.963,5.132c-0.694,0.969 -1.424,1.913 -2.191,2.826c-0.547,0.65 -1.112,1.283 -1.698,1.898c-5.237,5.5 -12.758,9.603 -20.7,8.01c-8.823,-1.77 -16.02,-9.33 -20.346,-17.461c0,0 1.536,-3.132 2.978,-5.132c0.646,-0.897 1.324,-1.77 2.034,-2.617c0.544,-0.649 1.108,-1.282 1.691,-1.897c4.627,-4.876 10.564,-8.63 17.601,-8.596Z"
            fill="#888888"/>
        <path d="M32.158,23.948c4.425,0 8.018,3.593 8.018,8.017c0,4.425 -3.593,8.017 -8.018,8.017c-4.424,0 -8.017,-3.592 -8.017,-8.017c0,-4.424 3.593,-8.017 8.017,-8.017Zm0,4.009c2.213,0 4.009,1.796 4.009,4.008c0,2.213 -1.796,4.009 -4.009,4.009c-2.212,0 -4.008,-1.796 -4.008,-4.009c0,-2.212 1.796,-4.008 4.008,-4.008Z"
              fill=""/>
    </g>
  </g>
</svg>
